<svg width="223" height="169" viewBox="0 0 223 169" fill="none" xmlns="http://www.w3.org/2000/svg">
<g clip-path="url(#clip0_86_948)">
<path d="M168.128 93.0679C173.674 88.9893 182.781 92.0026 182.781 101.816C185.448 96.3092 197.101 97.6426 196.501 106.869C200.114 104.483 205.101 106.643 204.941 111.749C209.834 109.123 218.821 114.523 216.862 122.495C214.208 121.629 211.074 122.083 208.501 124.203C206.941 118.136 200.541 116.256 194.941 116.643C190.582 116.948 186.888 120.243 185.488 123.696C183.048 122.161 179.834 121.828 176.274 122.643C170.168 124.029 166.608 127.816 165.834 133.083C163.101 127.976 155.608 130.136 154.714 134.869C152.781 127.976 145.941 125.976 141.274 126.483C137.261 126.909 132.114 129.149 130.594 135.029C127.274 131.841 121.901 129.495 116.048 129.976C111.648 130.336 107.568 132.603 105.074 135.948C104.408 130.068 93.0209 127.856 88.7556 133.376C86.7009 130.976 83.2343 129.123 79.4476 128.803C75.6609 128.495 70.5943 129.469 67.6743 132.923C66.8476 127.443 59.3276 124.068 54.1009 126.068C52.4609 119.828 40.061 115.309 34.2743 125.536C33.6076 119.309 28.7143 116.869 24.2743 116.869C17.5943 116.869 14.0476 121.976 13.8343 125.083C12.2343 124.189 10.4476 123.976 8.74096 124.309C6.58229 116.429 15.8743 110.388 21.1676 113.976C19.8343 105.976 29.6076 102.643 34.1143 107.976C32.2876 100.816 39.7556 95.7626 45.5543 97.8959C47.5823 90.4946 59.981 86.1612 66.2743 94.4159C67.1676 89.0826 72.3676 85.5892 78.7809 86.4826C81.7676 86.8959 84.1143 88.3879 85.621 90.2559C87.8343 84.2292 97.1956 82.9625 100.274 88.3092C102.208 77.5492 120.568 72.6146 127.941 84.0026C130.394 82.7626 133.461 82.4012 136.941 83.3092C142.501 84.7625 145.448 89.4692 145.834 93.0826C149.221 83.3092 165.074 85.0826 168.114 93.0679H168.128Z" fill="#D87639"/>
<path d="M34.2742 125.536C40.0609 115.309 52.4608 119.828 54.1008 126.068C59.3275 124.068 66.8475 127.443 67.6742 132.923C70.5942 129.469 75.6608 128.495 79.4475 128.803C83.2342 129.123 86.7008 130.976 88.7555 133.376C93.0208 127.856 104.408 130.068 105.074 135.948C107.568 132.603 111.647 130.336 116.047 129.976C121.901 129.495 127.274 131.841 130.594 135.029C132.114 129.149 137.261 126.909 141.274 126.483C145.941 125.976 152.781 127.976 154.714 134.869C155.607 130.136 163.101 127.976 165.834 133.083C166.607 127.816 170.168 124.029 176.274 122.643C179.834 121.828 183.048 122.161 185.488 123.696C186.822 120.404 190.251 117.287 194.345 116.735C190.97 113.469 184.657 113.94 182.781 117.816C182.781 108.003 173.674 104.989 168.128 109.068H168.114C165.074 101.083 149.221 99.3092 145.834 109.083C145.447 105.469 142.501 100.763 136.941 99.3092C133.461 98.4012 130.394 98.7626 127.941 100.003C120.568 88.6146 102.208 93.5492 100.274 104.309C97.1955 98.9625 87.8342 100.229 85.6209 106.256C84.1142 104.388 81.7675 102.896 78.7808 102.483C72.3675 101.589 67.1675 105.083 66.2742 110.416C59.9809 102.161 47.5822 106.495 45.5542 113.896C39.7555 111.763 32.2875 116.816 34.1142 123.976L33.9462 123.808C34.0902 124.352 34.2075 124.92 34.2742 125.536Z" fill="#B74F2F"/>
<path d="M193.161 127.087C193.161 138.315 159.582 147.42 118.161 147.42C76.7406 147.42 43.1606 138.315 43.1606 127.087C43.1606 115.859 76.7406 106.753 118.161 106.753C159.582 106.753 193.161 115.859 193.161 127.087Z" fill="#612D26"/>
<path d="M216.862 122.495C220.341 123.615 223.034 126.976 222.714 131.749C222.221 139.296 217.261 141.549 212.154 140.816C212.154 142.175 211.848 143.629 211.168 145.083C208.809 150.189 200.501 152.203 192.501 148.643C190.529 159.243 176.501 159.828 171.048 156.401C168.301 162.629 159.196 164.416 154.328 160.456C152.234 166.656 141.034 167.896 137.101 161.643C133.448 166.976 127.221 169.643 117.101 168.643C111.529 168.083 108.101 166.229 106.074 163.936C97.3809 172.216 82.7275 166.803 80.4342 159.643C78.1142 162.803 72.7809 164.803 66.2743 163.643C62.6343 162.989 58.9676 160.523 57.3142 156.936C52.0076 163.309 39.0476 160.068 38.1142 152.309C31.8876 154.589 20.4342 153.976 16.7809 148.483C15.5009 146.563 14.7676 144.696 14.4609 142.936C6.40758 143.549 1.23426 139.963 0.94093 133.976C0.70093 129.123 4.51426 125.096 8.74093 124.309C10.4476 123.976 12.2342 124.189 13.8342 125.083C14.0476 121.976 17.5943 116.869 24.2743 116.869C28.7143 116.869 33.6076 119.309 34.2743 125.536C40.0609 115.309 52.4609 119.828 54.1009 126.068C59.3276 124.068 66.8476 127.443 67.6743 132.923C70.5943 129.469 75.6609 128.495 79.4476 128.803C83.2342 129.123 86.7009 130.976 88.7556 133.376C93.0209 127.856 104.408 130.068 105.074 135.948C107.568 132.603 111.648 130.336 116.048 129.976C121.901 129.495 127.274 131.841 130.594 135.029C132.114 129.149 137.261 126.909 141.274 126.483C145.941 125.976 152.781 127.976 154.714 134.869C155.608 130.136 163.101 127.976 165.834 133.083C166.608 127.816 170.168 124.029 176.274 122.643C179.834 121.828 183.048 122.161 185.488 123.696C186.888 120.243 190.582 116.948 194.941 116.643C200.541 116.256 206.941 118.136 208.501 124.203C211.074 122.083 214.208 121.629 216.862 122.495Z" fill="#E88D3A"/>
<path d="M217.479 122.753C216.909 129.724 212.249 131.817 207.443 131.128C207.443 132.424 207.151 133.809 206.505 135.193C204.255 140.06 196.338 141.98 188.714 138.587C186.833 148.689 173.465 149.248 168.267 145.983C165.649 151.917 156.973 153.62 152.333 149.844C150.337 155.753 139.665 156.936 135.915 150.976C132.431 156.059 126.498 158.601 116.854 157.648C111.542 157.113 108.275 155.347 106.345 153.161C98.0594 161.052 84.0928 155.893 81.9088 149.071C79.6981 152.081 74.6141 153.988 68.4141 152.881C64.9435 152.26 61.4488 149.909 59.8741 146.491C54.8155 152.564 42.4661 149.477 41.5754 142.081C35.6408 144.253 24.7248 143.669 21.2435 138.433C20.0235 136.604 19.3235 134.825 19.0328 133.149C11.6275 133.712 6.79147 130.545 6.20747 125.197C3.11414 126.803 0.751472 130.125 0.940806 133.976C1.23414 139.963 6.40746 143.549 14.4608 142.936C14.7675 144.696 15.5008 146.563 16.7808 148.483C20.4341 153.976 31.8874 154.589 38.1141 152.309C39.0474 160.068 52.0074 163.309 57.3141 156.936C58.9674 160.523 62.6341 162.989 66.2741 163.643C72.7808 164.803 78.1141 162.803 80.4341 159.643C82.7274 166.803 97.3808 172.216 106.074 163.936C108.101 166.229 111.529 168.083 117.101 168.643C127.221 169.643 133.447 166.976 137.101 161.643C141.034 167.896 152.234 166.656 154.327 160.456C159.195 164.416 168.301 162.629 171.047 156.401C176.501 159.828 190.529 159.243 192.501 148.643C200.501 152.203 208.809 150.189 211.167 145.083C211.847 143.629 212.154 142.175 212.154 140.816C217.261 141.549 222.221 139.296 222.714 131.749C223.015 127.269 220.649 124.057 217.479 122.753Z" fill="#D87639"/>
<path d="M30.7339 127.045L30.7579 127.063L30.8139 127.103L30.7339 127.045Z" fill="#F1AC56"/>
<path d="M31.258 127.449C31.0914 127.321 30.9234 127.192 30.758 127.063C30.2194 126.581 29.578 126.263 28.9034 126.132C29.1527 125.5 29.2834 124.759 29.2021 124.087C29.0007 122.401 28.3874 121.295 27.0034 120.284C25.922 119.495 24.4327 119.581 23.1967 119.776C22.114 119.948 21.0794 120.737 20.306 121.459C18.4834 123.157 17.41 126.063 18.7647 128.357C19.8527 130.196 22.2327 130.907 24.2727 130.471C24.218 131.061 24.2834 131.659 24.522 132.235C24.8687 133.071 24.9954 133.293 25.5741 134.011C26.1181 134.685 27.1221 134.956 27.9407 134.991C28.2061 135.001 28.8621 135.181 28.0261 134.961C29.5501 135.363 31.0914 134.709 31.914 133.38C32.4754 132.472 32.458 131.465 32.494 130.448C32.5207 129.704 32.3247 128.891 31.922 128.261C31.7554 127.94 31.5327 127.669 31.258 127.449Z" fill="#F1AC56"/>
<path d="M56.1116 135.251L55.8503 135.057C55.4983 134.633 55.0676 134.284 54.5703 134.045C54.1449 132.732 53.273 131.592 51.9903 130.789C51.1743 130.279 50.0609 130.008 49.0449 130.103C49.0689 129.851 49.089 129.597 49.0716 129.353C48.9703 127.917 48.4649 126.761 47.5116 125.685C45.9383 123.911 42.8756 124.011 41.285 125.655C40.1143 126.863 39.9783 128.489 40.5783 129.815C40.3023 130.983 40.7276 132.265 41.5303 133.149C42.2196 133.912 43.4649 134.264 44.4783 134.197C43.9609 135.407 43.8569 136.821 44.2063 138.039C44.8983 140.436 47.0863 141.416 49.2996 141.292C50.1076 141.427 50.9436 141.436 51.8183 141.415L51.9463 141.469H51.9543C53.3476 142.043 54.9009 141.912 56.1116 140.701C57.4769 139.336 57.7529 136.568 56.1116 135.251Z" fill="#F1AC56"/>
<path d="M75.6715 133.876C74.3648 134.176 73.0475 134.796 71.9821 135.675C71.6581 135.467 71.3061 135.292 70.9101 135.131C72.4861 135.773 71.5354 135.355 71.1501 135.161C70.1514 134.661 69.4688 134.513 68.3674 134.397C67.5221 134.309 66.4648 134.621 65.7515 135.063C64.9021 135.589 63.9474 136.556 63.7981 137.576C63.6354 138.683 63.6341 138.856 63.7995 139.96C63.9928 141.264 65.3421 142.371 66.5368 142.699C66.9141 142.803 67.3155 142.839 67.7181 142.821L67.8661 142.876C68.7328 143.103 69.5328 142.999 70.3235 142.748C70.5942 143.284 70.9274 143.787 71.3421 144.224C71.8448 145.413 72.8275 146.425 74.2928 146.911C76.9182 147.78 80.2555 147.311 82.4528 145.672C85.7675 143.204 86.9781 138.913 84.0355 135.615C82.0781 133.421 78.3261 133.267 75.6715 133.876Z" fill="#F1AC56"/>
<path d="M59.6089 129.386C58.0769 129.386 56.7969 130.664 56.7969 132.199C56.7969 133.732 58.0769 135.011 59.6089 135.011C61.1422 135.011 62.4222 133.732 62.4222 132.199C62.4222 130.664 61.1422 129.386 59.6089 129.386Z" fill="#F1AC56"/>
<path d="M132.497 143.424C131.106 143.424 129.945 144.584 129.945 145.976C129.945 147.368 131.106 148.528 132.497 148.528C133.888 148.528 135.049 147.368 135.049 145.976C135.049 144.584 133.888 143.424 132.497 143.424Z" fill="#F1AC56"/>
<path d="M34.4672 135.451L34.3686 135.524C33.3099 135.82 32.6272 137.233 33.5992 138.207C34.5752 139.183 35.9966 138.493 36.2872 137.431L36.3552 137.339C37.1632 136.245 35.5592 134.64 34.4672 135.451Z" fill="#F1AC56"/>
<path d="M100.394 139.349C99.3659 138.893 98.5845 138.639 97.4285 138.612C96.3859 138.589 95.3192 139.016 94.4192 139.483C91.9646 140.753 90.7233 144.139 92.2593 146.547C92.7286 147.281 93.3632 147.86 94.1059 148.232C94.6965 148.865 95.4579 149.336 96.2992 149.516C97.5246 149.776 98.5899 149.565 99.7072 149.013L99.8952 148.892C100.754 148.221 100.858 148.147 100.207 148.664C100.593 148.425 100.949 148.125 101.285 147.82C102.481 146.727 103.091 145.491 103.246 143.867C103.419 142.049 101.998 140.06 100.394 139.349Z" fill="#F1AC56"/>
<path d="M126.902 138.901C125.202 137.144 122.818 136.324 120.441 136.074C117.441 135.764 114.979 136.617 113.199 139.141C112.986 139.442 112.809 139.752 112.649 140.065C111.333 139.468 109.762 139.38 108.333 139.628C108.019 139.682 107.723 139.782 107.442 139.912C105.486 140.6 104.161 142.757 104.398 144.813C104.658 147.069 106.031 148.966 108.343 149.48C110.329 149.92 112.233 149.412 113.785 148.128L113.817 148.094C114.821 149.201 116.175 150.034 117.782 150.39C118.19 150.482 118.594 150.528 118.999 150.552C119.885 150.716 120.791 150.672 121.631 150.417C121.765 150.428 121.894 150.441 122.03 150.448C127.705 150.688 130.699 142.826 126.902 138.901Z" fill="#F1AC56"/>
<path d="M148.463 135.073C148.435 134.864 148.397 134.656 148.33 134.451C147.973 133.368 146.908 132.28 145.654 132.415C144.292 132.56 143.109 133.059 142.374 134.303C141.975 134.98 141.884 135.709 141.982 136.401C139.756 136.533 137.911 138.231 137.841 140.513C137.782 140.704 137.731 140.893 137.695 141.081C137.362 142.769 138.15 144.852 140.046 145.221C141.269 145.461 142.351 145.563 143.578 145.328C145.837 144.899 147.199 142.832 147.286 140.643C147.31 140.057 147.167 139.497 146.925 138.983C147.945 138.376 148.621 137.227 148.555 136.06L148.566 135.98C148.555 135.6 148.434 134.759 148.463 135.073Z" fill="#F1AC56"/>
<path d="M189.941 128.992C189.07 128.992 188.265 129.292 187.603 129.78L187.503 129.525C187.374 129.251 187.067 128.393 187.457 129.568C187.267 128.997 186.987 128.352 186.643 127.837C185.035 125.433 182.53 124.437 179.699 124.865C181.346 124.617 179.463 124.828 178.913 125.013C178.075 125.292 177.319 125.685 176.689 126.316C175.482 127.521 174.942 129.4 175.39 131.055L175.331 131.403C174.689 131.368 173.997 131.437 173.517 131.612C172.361 132.033 171.633 132.647 170.905 133.519C170.49 133.385 170.061 133.293 169.607 133.293C167.501 133.293 165.713 134.857 165.339 136.868C164.922 136.485 164.454 136.156 164.011 135.917C162.609 135.163 161.058 134.928 159.509 135.323C157.819 135.752 156.409 137.48 156.477 139.257L156.422 139.324C155.835 140.152 155.874 141.313 156.079 142.245C156.306 143.284 157.193 144.199 158.069 144.751C159.085 145.392 160.422 145.639 161.606 145.519C162.974 145.383 164.617 145.036 165.577 143.943C166.167 143.269 166.646 142.597 166.859 141.708C166.914 141.477 166.931 141.261 166.951 141.044C167.693 141.627 168.609 141.992 169.607 141.992C170.287 141.992 170.925 141.815 171.503 141.527C171.734 141.693 171.978 141.836 172.237 141.956C172.65 142.643 173.438 143.36 174.255 143.492C175.429 143.685 176.391 143.896 177.593 143.656C179.362 143.303 180.478 141.589 181.058 140.021C181.279 139.424 181.351 138.828 181.315 138.253C182.15 138.251 182.975 138.147 183.671 137.991C184.957 137.703 186.203 136.811 187.05 135.681C187.782 136.461 188.809 136.96 189.941 136.96C192.113 136.96 193.925 135.148 193.925 132.976C193.925 130.804 192.113 128.992 189.941 128.992Z" fill="#F1AC56"/>
<path d="M216.862 122.495C220.341 123.615 223.034 126.976 222.714 131.749C222.221 139.296 217.261 141.549 212.154 140.816C212.154 142.175 211.848 143.629 211.168 145.083C208.809 150.189 200.501 152.203 192.501 148.643C190.529 159.243 176.501 159.828 171.048 156.401C168.301 162.629 159.196 164.416 154.328 160.456C152.234 166.656 141.034 167.896 137.101 161.643C133.448 166.976 127.221 169.643 117.101 168.643C111.529 168.083 108.101 166.229 106.074 163.936C97.3809 172.216 82.7275 166.803 80.4342 159.643C78.1142 162.803 72.7809 164.803 66.2743 163.643C62.6343 162.989 58.9676 160.523 57.3142 156.936C52.0076 163.309 39.0476 160.068 38.1142 152.309C31.8876 154.589 20.4342 153.976 16.7809 148.483C15.5009 146.563 14.7676 144.696 14.4609 142.936C6.40758 143.549 1.23426 139.963 0.94093 133.976C0.70093 129.123 4.51426 125.096 8.74093 124.309C10.4476 123.976 12.2342 124.189 13.8342 125.083C14.0476 121.976 17.5943 116.869 24.2743 116.869C28.7143 116.869 33.6076 119.309 34.2743 125.536C40.0609 115.309 52.4609 119.828 54.1009 126.068C59.3276 124.068 66.8476 127.443 67.6743 132.923C70.5943 129.469 75.6609 128.495 79.4476 128.803C83.2342 129.123 86.7009 130.976 88.7556 133.376C93.0209 127.856 104.408 130.068 105.074 135.948C107.568 132.603 111.648 130.336 116.048 129.976C121.901 129.495 127.274 131.841 130.594 135.029C132.114 129.149 137.261 126.909 141.274 126.483C145.941 125.976 152.781 127.976 154.714 134.869C155.608 130.136 163.101 127.976 165.834 133.083C166.608 127.816 170.168 124.029 176.274 122.643C179.834 121.828 183.048 122.161 185.488 123.696C186.888 120.243 190.582 116.948 194.941 116.643C200.541 116.256 206.941 118.136 208.501 124.203C211.074 122.083 214.208 121.629 216.862 122.495Z" fill="#E88D3A"/>
<path d="M217.479 122.753C216.909 129.724 212.249 131.817 207.443 131.128C207.443 132.424 207.151 133.809 206.505 135.193C204.255 140.06 196.338 141.98 188.714 138.587C186.833 148.689 173.465 149.248 168.267 145.983C165.649 151.917 156.973 153.62 152.333 149.844C150.337 155.753 139.665 156.936 135.915 150.976C132.431 156.059 126.498 158.601 116.854 157.648C111.542 157.113 108.275 155.347 106.345 153.161C98.0594 161.052 84.0928 155.893 81.9088 149.071C79.6981 152.081 74.6141 153.988 68.4141 152.881C64.9435 152.26 61.4488 149.909 59.8741 146.491C54.8155 152.564 42.4661 149.477 41.5754 142.081C35.6408 144.253 24.7248 143.669 21.2435 138.433C20.0235 136.604 19.3235 134.825 19.0328 133.149C11.6275 133.712 6.79147 130.545 6.20747 125.197C3.11414 126.803 0.751472 130.125 0.940806 133.976C1.23414 139.963 6.40746 143.549 14.4608 142.936C14.7675 144.696 15.5008 146.563 16.7808 148.483C20.4341 153.976 31.8874 154.589 38.1141 152.309C39.0474 160.068 52.0074 163.309 57.3141 156.936C58.9674 160.523 62.6341 162.989 66.2741 163.643C72.7808 164.803 78.1141 162.803 80.4341 159.643C82.7274 166.803 97.3808 172.216 106.074 163.936C108.101 166.229 111.529 168.083 117.101 168.643C127.221 169.643 133.447 166.976 137.101 161.643C141.034 167.896 152.234 166.656 154.327 160.456C159.195 164.416 168.301 162.629 171.047 156.401C176.501 159.828 190.529 159.243 192.501 148.643C200.501 152.203 208.809 150.189 211.167 145.083C211.847 143.629 212.154 142.175 212.154 140.816C217.261 141.549 222.221 139.296 222.714 131.749C223.015 127.269 220.649 124.057 217.479 122.753Z" fill="#D87639"/>
<path d="M30.7339 127.045L30.7579 127.063L30.8139 127.103L30.7339 127.045Z" fill="#F1AC56"/>
<path d="M31.258 127.449C31.0914 127.321 30.9234 127.192 30.758 127.063C30.2194 126.581 29.578 126.263 28.9034 126.132C29.1527 125.5 29.2834 124.759 29.2021 124.087C29.0007 122.401 28.3874 121.295 27.0034 120.284C25.922 119.495 24.4327 119.581 23.1967 119.776C22.114 119.948 21.0794 120.737 20.306 121.459C18.4834 123.157 17.41 126.063 18.7647 128.357C19.8527 130.196 22.2327 130.907 24.2727 130.471C24.218 131.061 24.2834 131.659 24.522 132.235C24.8687 133.071 24.9954 133.293 25.5741 134.011C26.1181 134.685 27.1221 134.956 27.9407 134.991C28.2061 135.001 28.8621 135.181 28.0261 134.961C29.5501 135.363 31.0914 134.709 31.914 133.38C32.4754 132.472 32.458 131.465 32.494 130.448C32.5207 129.704 32.3247 128.891 31.922 128.261C31.7554 127.94 31.5327 127.669 31.258 127.449Z" fill="#F1AC56"/>
<path d="M56.1116 135.251L55.8503 135.057C55.4983 134.633 55.0676 134.284 54.5703 134.045C54.1449 132.732 53.273 131.592 51.9903 130.789C51.1743 130.279 50.0609 130.008 49.0449 130.103C49.0689 129.851 49.089 129.597 49.0716 129.353C48.9703 127.917 48.4649 126.761 47.5116 125.685C45.9383 123.911 42.8756 124.011 41.285 125.655C40.1143 126.863 39.9783 128.489 40.5783 129.815C40.3023 130.983 40.7276 132.265 41.5303 133.149C42.2196 133.912 43.4649 134.264 44.4783 134.197C43.9609 135.407 43.8569 136.821 44.2063 138.039C44.8983 140.436 47.0863 141.416 49.2996 141.292C50.1076 141.427 50.9436 141.436 51.8183 141.415L51.9463 141.469H51.9543C53.3476 142.043 54.9009 141.912 56.1116 140.701C57.4769 139.336 57.7529 136.568 56.1116 135.251Z" fill="#F1AC56"/>
<path d="M75.6715 133.876C74.3648 134.176 73.0475 134.796 71.9821 135.675C71.6581 135.467 71.3061 135.292 70.9101 135.131C72.4861 135.773 71.5354 135.355 71.1501 135.161C70.1514 134.661 69.4688 134.513 68.3674 134.397C67.5221 134.309 66.4648 134.621 65.7515 135.063C64.9021 135.589 63.9474 136.556 63.7981 137.576C63.6354 138.683 63.6341 138.856 63.7995 139.96C63.9928 141.264 65.3421 142.371 66.5368 142.699C66.9141 142.803 67.3155 142.839 67.7181 142.821L67.8661 142.876C68.7328 143.103 69.5328 142.999 70.3235 142.748C70.5942 143.284 70.9274 143.787 71.3421 144.224C71.8448 145.413 72.8275 146.425 74.2928 146.911C76.9182 147.78 80.2555 147.311 82.4528 145.672C85.7675 143.204 86.9781 138.913 84.0355 135.615C82.0781 133.421 78.3261 133.267 75.6715 133.876Z" fill="#F1AC56"/>
<path d="M59.6089 129.386C58.0769 129.386 56.7969 130.664 56.7969 132.199C56.7969 133.732 58.0769 135.011 59.6089 135.011C61.1422 135.011 62.4222 133.732 62.4222 132.199C62.4222 130.664 61.1422 129.386 59.6089 129.386Z" fill="#F1AC56"/>
<path d="M132.497 143.424C131.106 143.424 129.945 144.584 129.945 145.976C129.945 147.368 131.106 148.528 132.497 148.528C133.888 148.528 135.049 147.368 135.049 145.976C135.049 144.584 133.888 143.424 132.497 143.424Z" fill="#F1AC56"/>
<path d="M34.4672 135.451L34.3686 135.524C33.3099 135.82 32.6272 137.233 33.5992 138.207C34.5752 139.183 35.9966 138.493 36.2872 137.431L36.3552 137.339C37.1632 136.245 35.5592 134.64 34.4672 135.451Z" fill="#F1AC56"/>
<path d="M100.394 139.349C99.3659 138.893 98.5845 138.639 97.4285 138.612C96.3859 138.589 95.3192 139.016 94.4192 139.483C91.9646 140.753 90.7233 144.139 92.2593 146.547C92.7286 147.281 93.3632 147.86 94.1059 148.232C94.6965 148.865 95.4579 149.336 96.2992 149.516C97.5246 149.776 98.5899 149.565 99.7072 149.013L99.8952 148.892C100.754 148.221 100.858 148.147 100.207 148.664C100.593 148.425 100.949 148.125 101.285 147.82C102.481 146.727 103.091 145.491 103.246 143.867C103.419 142.049 101.998 140.06 100.394 139.349Z" fill="#F1AC56"/>
<path d="M126.902 138.901C125.202 137.144 122.818 136.324 120.441 136.074C117.441 135.764 114.979 136.617 113.199 139.141C112.986 139.442 112.809 139.752 112.649 140.065C111.333 139.468 109.762 139.38 108.333 139.628C108.019 139.682 107.723 139.782 107.442 139.912C105.486 140.6 104.161 142.757 104.398 144.813C104.658 147.069 106.031 148.966 108.343 149.48C110.329 149.92 112.233 149.412 113.785 148.128L113.817 148.094C114.821 149.201 116.175 150.034 117.782 150.39C118.19 150.482 118.594 150.528 118.999 150.552C119.885 150.716 120.791 150.672 121.631 150.417C121.765 150.428 121.894 150.441 122.03 150.448C127.705 150.688 130.699 142.826 126.902 138.901Z" fill="#F1AC56"/>
<path d="M148.463 135.073C148.435 134.864 148.397 134.656 148.33 134.451C147.973 133.368 146.908 132.28 145.654 132.415C144.292 132.56 143.109 133.059 142.374 134.303C141.975 134.98 141.884 135.709 141.982 136.401C139.756 136.533 137.911 138.231 137.841 140.513C137.782 140.704 137.731 140.893 137.695 141.081C137.362 142.769 138.15 144.852 140.046 145.221C141.269 145.461 142.351 145.563 143.578 145.328C145.837 144.899 147.199 142.832 147.286 140.643C147.31 140.057 147.167 139.497 146.925 138.983C147.945 138.376 148.621 137.227 148.555 136.06L148.566 135.98C148.555 135.6 148.434 134.759 148.463 135.073Z" fill="#F1AC56"/>
<path d="M189.941 128.992C189.07 128.992 188.265 129.292 187.603 129.78L187.503 129.525C187.374 129.251 187.067 128.393 187.457 129.568C187.267 128.997 186.987 128.352 186.643 127.837C185.035 125.433 182.53 124.437 179.699 124.865C181.346 124.617 179.463 124.828 178.913 125.013C178.075 125.292 177.319 125.685 176.689 126.316C175.482 127.521 174.942 129.4 175.39 131.055L175.331 131.403C174.689 131.368 173.997 131.437 173.517 131.612C172.361 132.033 171.633 132.647 170.905 133.519C170.49 133.385 170.061 133.293 169.607 133.293C167.501 133.293 165.713 134.857 165.339 136.868C164.922 136.485 164.454 136.156 164.011 135.917C162.609 135.163 161.058 134.928 159.509 135.323C157.819 135.752 156.409 137.48 156.477 139.257L156.422 139.324C155.835 140.152 155.874 141.313 156.079 142.245C156.306 143.284 157.193 144.199 158.069 144.751C159.085 145.392 160.422 145.639 161.606 145.519C162.974 145.383 164.617 145.036 165.577 143.943C166.167 143.269 166.646 142.597 166.859 141.708C166.914 141.477 166.931 141.261 166.951 141.044C167.693 141.627 168.609 141.992 169.607 141.992C170.287 141.992 170.925 141.815 171.503 141.527C171.734 141.693 171.978 141.836 172.237 141.956C172.65 142.643 173.438 143.36 174.255 143.492C175.429 143.685 176.391 143.896 177.593 143.656C179.362 143.303 180.478 141.589 181.058 140.021C181.279 139.424 181.351 138.828 181.315 138.253C182.15 138.251 182.975 138.147 183.671 137.991C184.957 137.703 186.203 136.811 187.05 135.681C187.782 136.461 188.809 136.96 189.941 136.96C192.113 136.96 193.925 135.148 193.925 132.976C193.925 130.804 192.113 128.992 189.941 128.992Z" fill="#F1AC56"/>
</g>
<defs>
<clipPath id="clip0_86_948">
<rect width="221.81" height="91.3497" fill="white" transform="translate(0.930176 77.5)"/>
</clipPath>
</defs>
</svg>
